<svg width="128" height="169" viewBox="0 0 128 169" fill="none" xmlns="http://www.w3.org/2000/svg">

<!-- ENTRANCE: desliza desde arriba + fade -->
<g>
  <animate attributeName="opacity" from="0" to="1" dur="0.45s" fill="freeze"/>
  <animateTransform attributeName="transform" type="translate"
    from="0 -38" to="0 0"
    dur="0.52s" fill="freeze" calcMode="spline"
    keySplines="0.22 1 0.36 1"
    id="ent"/>

  <!-- HOVER FLOAT: empieza tras la entrada -->
  <g>
    <animateTransform attributeName="transform" type="translate"
      values="0 0; 0 -3; 0 0"
      keyTimes="0; 0.5; 1"
      keySplines="0.45 0 0.55 1; 0.45 0 0.55 1"
      calcMode="spline"
      dur="3.6s" repeatCount="indefinite"
      begin="ent.end"/>

    <!-- ALA IZQUIERDA / SUPERIOR (path 1) -->
    <g>
      <animateTransform attributeName="transform" type="rotate"
        values="10 64 42; -10 64 42; 10 64 42"
        keyTimes="0; 0.5; 1"
        keySplines="0.45 0 0.55 1; 0.45 0 0.55 1"
        calcMode="spline" dur="1.8s" repeatCount="indefinite"
        begin="ent.end"/>
      <path d="M82.1733 60.9939C82.5232 60.1504 82.9426 59.3375 83.4272 58.5634C83.7106 57.7561 84.0283 56.996 84.3676 56.2532C81.8416 51.3659 78.6635 46.8443 74.9205 42.8125L74.9634 42.7868C74.6843 42.4905 74.3966 42.2028 74.1046 41.9279C73.8126 41.6531 73.6366 41.4384 73.3961 41.2022C63.2662 30.9607 51.496 23.5447 44.8702 2.43477C44.3163 0.356412 43.0452 0 43.0452 0C41.8944 0.536767 39.6357 1.387 39.6357 1.387C36.8161 3.22428 34.2218 5.38613 31.9062 7.82821C29.0613 10.6944 26.6861 13.9913 24.8682 17.5974C35.917 29.1915 47.4467 33.009 58.4354 39.038C58.7574 39.214 59.0709 39.3987 59.3929 39.579C59.715 39.7594 60.1616 40.0085 60.5438 40.2232L60.5094 40.2661C69.9875 45.8431 77.9054 53.7212 83.5302 63.171C83.0751 62.441 82.6328 61.7282 82.1733 60.9939Z" fill="url(#paint1_linear_8637_25347)"/>
    </g>

    <!-- CUERPO (paths 2 + 3): leve balanceo sincronizado con alas -->
    <g>
      <animateTransform attributeName="transform" type="rotate"
        values="-2 64 65; 2 64 65; -2 64 65"
        keyTimes="0; 0.5; 1"
        keySplines="0.45 0 0.55 1; 0.45 0 0.55 1"
        calcMode="spline" dur="1.8s" repeatCount="indefinite"
        begin="ent.end"/>
      <path d="M91.0708 82.2714C91.0708 82.2714 91.0708 82.2456 91.0708 82.2327C89.5934 75.5682 87.0702 69.1796 83.5947 63.3042C87.0709 69.193 89.5941 75.5944 91.0708 82.2714Z" fill="url(#paint2_linear_8637_25347)"/>
      <path d="M60.495 40.2576L60.5294 40.2147C60.1472 39.9914 59.7607 39.7852 59.3785 39.5705C58.9964 39.3558 58.743 39.2055 58.4209 39.0338C44.7485 31.5276 30.2343 27.4396 16.8624 7.58353C15.6429 5.59964 14.2172 5.6211 14.2172 5.6211C13.1909 6.53575 11.1083 8.1117 11.1083 8.1117C8.7443 10.8926 6.71636 13.9424 5.06644 17.1981C3.84119 19.5244 2.83489 21.9597 2.06055 24.4724C2.62737 25.6318 3.34878 26.9973 4.20761 28.5389C4.89896 29.6468 5.56885 30.9136 6.42768 32.146C7.2865 33.3784 8.14532 34.7225 9.15874 36.0107C10.1721 37.2989 11.2543 38.6087 12.3793 39.9227C13.5044 41.2367 14.8055 42.4133 16.0508 43.6543C17.4206 44.7364 18.6874 45.9989 20.1345 46.9393C21.5816 47.8797 22.9386 48.9575 24.4286 49.6403C25.8094 50.441 27.2613 51.1123 28.7657 51.6456C30.2042 52.1438 31.5397 52.7664 32.8709 52.9596L36.4651 53.7326L39.2992 53.9172L41.7941 54.0804L39.2992 54.2092L36.4136 54.3552L32.6734 53.9988C31.2735 53.9516 29.8478 53.4835 28.2891 53.14C26.655 52.7637 25.0582 52.2406 23.5183 51.5769C21.8393 51.0316 20.2977 50.0912 18.6445 49.2624C16.9912 48.4336 15.514 47.2828 13.9209 46.2866C12.4523 45.1357 10.915 44.015 9.5538 42.7826C8.19256 41.5501 6.82274 40.3263 5.64614 39.0209C4.40085 37.767 3.28867 36.4831 2.25379 35.242C1.5152 34.409 0.879665 33.5716 0.265605 32.76C0.00797585 35.0263 -0.0623956 37.3099 0.0551975 39.5877C0.13633 44.2563 0.97904 48.8804 2.55008 53.2774C2.78626 53.4835 3.00956 53.6811 3.26291 53.8915C4.17756 54.5957 5.12656 55.4417 6.22585 56.1931C7.32515 56.9446 8.45022 57.7991 9.69122 58.5592C10.9322 59.3193 12.2376 60.0621 13.5774 60.8093C14.9172 61.5565 16.3643 62.119 17.7856 62.7675C19.2542 63.2398 20.7014 63.8925 22.1957 64.2232C23.6901 64.5538 25.1544 65.0305 26.6187 65.1292C28.0157 65.3657 29.4317 65.472 30.8484 65.447C32.1967 65.4169 33.5064 65.5157 34.6701 65.2623L37.9036 64.7857L40.3255 64.0557L42.4726 63.4116L40.45 64.3305L38.0797 65.3955L34.8591 66.3101C33.6825 66.7395 32.3427 66.8039 30.9342 67.0229C29.4533 67.2407 27.9557 67.3241 26.4598 67.272C24.8838 67.3622 23.2993 67.083 21.6546 66.9285C20.01 66.7739 18.404 66.3015 16.7422 65.9881C15.149 65.5114 13.513 65.0734 11.9714 64.4937C10.4298 63.914 8.89679 63.3343 7.49261 62.63C7.26503 62.5313 7.06321 62.411 6.85279 62.308C9.06256 65.8991 11.7527 69.1714 14.8485 72.0342C18.3415 74.9578 22.1225 77.5188 26.1334 79.6777C26.5328 79.871 26.9107 80.1072 27.3186 80.2875V80.309C35.9884 84.8178 48.2095 89.0175 63.969 89.3009C77.3151 90.4346 86.9211 100.058 90.76 111.991C94.1105 98.3717 92.9738 84.0345 87.5191 71.1132C82.0643 58.1919 72.583 47.3773 60.4864 40.2791L60.495 40.2576Z" fill="url(#paint3_linear_8637_25347)"/>
    </g>

    <!-- ALA DERECHA (path 4) -->
    <g>
      <animateTransform attributeName="transform" type="rotate"
        values="-13 87 60; 10 87 60; -13 87 60"
        keyTimes="0; 0.5; 1"
        keySplines="0.45 0 0.55 1; 0.45 0 0.55 1"
        calcMode="spline" dur="1.8s" repeatCount="indefinite"
        begin="ent.end"/>
      <path d="M117.612 44.9339C97.9491 36.1266 87.0334 51.5082 87.0334 51.5082L87.1408 51.5855C85.5414 53.6997 84.289 56.0552 83.4306 58.5635C82.9461 59.3375 82.5267 60.1505 82.1768 60.994C87.0122 68.4545 90.2691 76.826 91.7468 85.5928C93.2246 94.3597 92.8919 103.336 90.7693 111.97C90.7693 111.97 114.387 106.387 110.643 74.0395C111.312 65.0949 116.598 57.1679 118.174 55.3686C122.104 54.4454 127.166 49.2581 127.166 49.2581C127.166 49.2581 124.727 45.5523 117.612 44.9339Z" fill="url(#paint4_linear_8637_25347)"/>
    </g>

    <!-- COLA (paths 0, 5, 6, 7, 8): contramovimiento opuesto a las alas -->
    <g>
      <animateTransform attributeName="transform" type="rotate"
        values="4 72 118; -4 72 118; 4 72 118"
        keyTimes="0; 0.5; 1"
        keySplines="0.45 0 0.55 1; 0.45 0 0.55 1"
        calcMode="spline" dur="1.8s" repeatCount="indefinite"
        begin="ent.end"/>
      <path d="M85.4179 114.379L85.1989 114.34C85.0142 114.34 84.8296 114.314 84.6406 114.314C82.021 114.338 79.4325 114.885 77.0266 115.922C74.6207 116.958 72.4457 118.464 70.6289 120.352C70.9902 122.707 71.7774 124.977 72.952 127.051C73.0894 126.849 73.2354 126.656 73.3814 126.458L73.9354 125.676C74.3304 125.144 74.7298 124.626 75.1335 124.122C75.3653 123.834 75.5929 123.568 75.8205 123.293C76.0481 123.018 76.2929 122.739 76.529 122.473C76.8296 122.13 77.1259 121.799 77.4222 121.477C77.7185 121.155 78.0363 120.816 78.3412 120.502L79.1098 119.729L79.6509 119.205C80.0803 118.802 80.4753 118.428 80.8661 118.072C81.025 117.934 81.1796 117.788 81.3299 117.642L82.0083 117.058L82.4378 116.685C82.7598 116.423 83.0518 116.182 83.3309 115.963L83.7604 115.628L84.1898 115.302L84.5891 115.006L84.9412 114.752L85.2461 114.533L85.3792 114.443L85.4909 114.366C85.4909 114.366 85.4565 114.387 85.4179 114.379Z" fill="url(#paint0_linear_8637_25347)"/>
      <path d="M84.635 114.314C84.824 114.314 85.0086 114.335 85.1932 114.34C84.0252 114.099 79.0483 113.112 70.5202 114.997C70.2887 116.777 70.3234 118.582 70.6233 120.351C72.4401 118.464 74.6151 116.958 77.021 115.921C79.4269 114.885 82.0154 114.338 84.635 114.314Z" fill="url(#paint5_linear_8637_25347)" style="mix-blend-mode:multiply"/>
      <path d="M72.9495 127.051C71.7749 124.977 70.9877 122.707 70.6264 120.352C67.8519 123.213 66.0104 126.849 65.345 130.779C64.6795 134.709 65.2214 138.748 66.8991 142.364C67.6678 136.154 70.3129 130.791 73.3704 126.475C73.2329 126.656 73.0869 126.849 72.9495 127.051Z" fill="url(#paint6_linear_8637_25347)" style="mix-blend-mode:multiply"/>
      <path d="M85.1956 114.34L85.4018 114.379C84.9165 114.288 81.8033 113.52 76.251 114.065C81.3052 113.558 84.3196 114.16 85.1956 114.34Z" fill="url(#paint7_linear_8637_25347)"/>
      <path d="M66.9001 142.364C65.2224 138.748 64.6805 134.709 65.346 130.779C66.0114 126.849 67.8529 123.213 70.6274 120.352C70.3276 118.582 70.2928 116.777 70.5244 114.997C72.413 114.577 74.3242 114.266 76.2484 114.065C71.9506 114.536 67.7215 115.501 63.6452 116.942C24.5386 130.357 34.4795 164.131 35.6775 166.776C38.1546 167.97 40.852 168.64 43.6002 168.742C43.4103 167.815 43.267 166.88 43.1708 165.938C42.9813 164.237 42.9411 162.523 43.0505 160.815C43.1708 159.957 43.2008 159.072 43.4027 158.239C43.5517 157.414 43.7612 156.602 44.0296 155.808C44.2483 155.061 44.5358 154.335 44.8884 153.64C45.1664 153.004 45.5013 152.395 45.889 151.819C46.254 151.295 46.5846 150.81 46.8766 150.381L47.7912 149.397L48.5771 148.538L47.9072 149.483L47.1428 150.557L46.3742 152.073C46.0759 152.668 45.8315 153.289 45.6442 153.928C45.3987 154.625 45.2176 155.344 45.1031 156.075C44.9469 156.845 44.8507 157.626 44.8154 158.411C44.7295 159.201 44.8154 160.025 44.8154 160.828C44.9228 162.413 45.1685 163.985 45.5497 165.526C45.804 166.603 46.1252 167.663 46.5116 168.699C50.737 168.433 54.9109 167.338 59.1149 166.664C59.0419 166.527 58.9603 166.411 58.8916 166.269C58.0009 164.572 57.2595 162.8 56.6758 160.974C56.4525 160.021 56.1261 159.102 55.993 158.144C55.8151 157.223 55.7046 156.291 55.6624 155.353C55.5848 154.483 55.5848 153.608 55.6624 152.738C55.6963 151.962 55.7983 151.19 55.9673 150.432L56.3967 148.526C56.6071 147.985 56.796 147.512 56.9463 147.126C57.2512 146.353 57.4273 145.915 57.4273 145.915C57.4273 145.915 57.3027 146.37 57.0923 147.173C56.985 147.568 56.8605 148.032 56.7102 148.603C56.65 149.17 56.577 149.81 56.4954 150.505C56.4181 151.251 56.4081 152.003 56.4654 152.751C56.4777 153.582 56.5683 154.41 56.7359 155.224C56.877 156.097 57.0822 156.958 57.35 157.801C57.5776 158.66 57.9898 159.519 58.2947 160.377C59.0355 162.008 59.9162 163.571 60.927 165.049C61.2233 165.505 61.5368 165.908 61.8502 166.316C66.2904 165.887 70.7863 166.252 75.4411 169C67.8663 159.089 65.9425 150.08 66.9001 142.364Z" fill="url(#paint8_linear_8637_25347)"/>
    </g>

  </g>
</g>

<defs>
<linearGradient id="paint0_linear_8637_25347" x1="75.0175" y1="120.609" x2="101.087" y2="121.103" gradientUnits="userSpaceOnUse">
<stop stop-color="#B3B3B3"/>
<stop offset="0.8" stop-color="#808080"/>
</linearGradient>
<linearGradient id="paint1_linear_8637_25347" x1="52.7456" y1="44.5345" x2="67.1525" y2="2.92862" gradientUnits="userSpaceOnUse">
<stop stop-color="#808080"/>
<stop offset="0.79" stop-color="#B3B3B3"/>
</linearGradient>
<linearGradient id="paint2_linear_8637_25347" x1="86.5061" y1="73.4899" x2="90.0531" y2="70.4926" gradientUnits="userSpaceOnUse">
<stop stop-color="#008500"/>
<stop offset="0.79" stop-color="#1DD600"/>
</linearGradient>
<linearGradient id="paint3_linear_8637_25347" x1="24.9037" y1="88.7343" x2="87.5831" y2="19" gradientUnits="userSpaceOnUse">
<stop stop-color="#808080"/>
<stop offset="0.79" stop-color="#B3B3B3"/>
</linearGradient>
<linearGradient id="paint4_linear_8637_25347" x1="137.331" y1="55.4331" x2="55.9997" y2="98.0179" gradientUnits="userSpaceOnUse">
<stop stop-color="#808080"/>
<stop offset="0.79" stop-color="#B3B3B3"/>
</linearGradient>
<linearGradient id="paint5_linear_8637_25347" x1="70.6662" y1="121.369" x2="86.1595" y2="106.932" gradientUnits="userSpaceOnUse">
<stop stop-color="#B3B3B3"/>
<stop offset="0.783654" stop-color="#808080"/>
</linearGradient>
<linearGradient id="paint6_linear_8637_25347" x1="63.0773" y1="135.862" x2="89.293" y2="115.092" gradientUnits="userSpaceOnUse">
<stop stop-color="#808080"/>
<stop offset="0.605769" stop-color="#B3B3B3"/>
</linearGradient>
<linearGradient id="paint7_linear_8637_25347" x1="78.0803" y1="116.285" x2="88.9014" y2="108.165" gradientUnits="userSpaceOnUse">
<stop stop-color="#008500"/>
<stop offset="0.79" stop-color="#1DD600"/>
</linearGradient>
<linearGradient id="paint8_linear_8637_25347" x1="30.083" y1="173" x2="94.885" y2="121.576" gradientUnits="userSpaceOnUse">
<stop stop-color="#B3B3B3"/>
<stop offset="0.764423" stop-color="#808080"/>
</linearGradient>
</defs>
</svg>
